<?xml version="1.0" encoding="utf-8"?>
<!-- Generator: Adobe Illustrator 28.0.0, SVG Export Plug-In . SVG Version: 6.00 Build 0)  -->
<svg version="1.1" id="Layer_1" xmlns="http://www.w3.org/2000/svg" xmlns:xlink="http://www.w3.org/1999/xlink" x="0px" y="0px"
	 viewBox="0 0 1507.37 245.04" style="enable-background:new 0 0 1507.37 245.04;" xml:space="preserve">
<style type="text/css">
	.st0{fill:none;stroke:#FFFFFF;stroke-width:3;stroke-miterlimit:10;}
	.st1{fill:#FFFFFF;}
	.st2{fill:#B08D57;}
	.st3{fill:none;stroke:#000000;stroke-width:4;stroke-miterlimit:10;}
	.st4{fill:none;stroke:#E08534;stroke-width:4;stroke-miterlimit:10;}
	.st5{fill:none;stroke:#B66831;stroke-width:4;stroke-miterlimit:10;}
	.st6{fill:none;stroke:#B66831;stroke-width:3;stroke-miterlimit:10;}
	.st7{fill:#B92131;stroke:#B92131;stroke-miterlimit:10;}
	.st8{fill:#FFFFFF;stroke:#000000;stroke-miterlimit:10;}
	.st9{stroke:#FFFFFF;stroke-miterlimit:10;}
	.st10{fill:#E08534;stroke:#FFFFFF;stroke-miterlimit:10;}
	.st11{fill:#FFFFFF;stroke:#000000;stroke-width:4;stroke-miterlimit:10;}
	.st12{fill:none;stroke:#000000;stroke-width:3;stroke-miterlimit:10;}
	.st13{fill:none;stroke:#B92131;stroke-width:4;stroke-miterlimit:10;}
	.st14{fill:none;stroke:#000000;stroke-width:8;stroke-miterlimit:10;}
	.st15{fill:none;stroke:#000000;stroke-width:5;stroke-miterlimit:10;}
	.st16{fill:none;stroke:#E08534;stroke-width:4;stroke-miterlimit:8;}
	.st17{fill:none;stroke:#E08534;stroke-width:4.3104;stroke-miterlimit:8;}
	.st18{fill:none;stroke:#000000;stroke-width:2.5;stroke-miterlimit:10;}
	.st19{fill:none;stroke:#000000;stroke-width:6;stroke-miterlimit:10;}
	.st20{fill:none;stroke:#E08534;stroke-width:5;stroke-miterlimit:8;}
	.st21{fill:none;stroke:#FFFFFF;stroke-width:5;stroke-miterlimit:10;}
	.st22{fill:none;stroke:#FFFFFF;stroke-width:4;stroke-miterlimit:8;}
	.st23{fill:none;stroke:#000000;stroke-width:4;stroke-miterlimit:8;}
	.st24{fill:none;stroke:#000000;stroke-width:1.2;stroke-miterlimit:10;}
	.st25{fill:none;stroke:#000000;stroke-miterlimit:8;}
	.st26{fill:none;stroke:#DF8534;stroke-miterlimit:8;}
	.st27{fill:none;}
	.st28{fill:none;stroke:#FFFFFF;stroke-miterlimit:10;}
	.st29{fill:none;stroke:#FFFFFF;stroke-width:0.75;stroke-miterlimit:8;}
	.st30{fill:none;stroke:#000000;stroke-miterlimit:10;}
	.st31{fill:none;stroke:#DF8534;stroke-width:0.75;stroke-miterlimit:8;}
	.st32{fill:#4F3018;}
	.st33{fill:none;stroke:#E08534;stroke-width:6;stroke-miterlimit:10;}
	.st34{fill:none;stroke:#E08534;stroke-miterlimit:10;}
</style>
<g>
	<g>
		<polygon class="st2" points="881.26,119.52 1353.27,122.52 881.26,125.52 881.26,119.52 		"/>
	</g>
	<g>
		<polygon class="st2" points="154.11,122.52 626.12,119.52 626.12,125.52 154.11,122.52 		"/>
	</g>
	<path class="st2" d="M90.17,122.52c0-25.6,15.81-47.5,38.18-56.51c-7.02-2.83-14.69-4.4-22.72-4.4
		c-33.64,0-60.91,27.27-60.91,60.91s27.27,60.91,60.91,60.91c8.04,0,15.7-1.57,22.72-4.4C105.97,170.02,90.17,148.12,90.17,122.52z"
		/>
	<path class="st2" d="M1401.74,61.61c-8.04,0-15.7,1.57-22.72,4.4c22.38,9.01,38.18,30.91,38.18,56.51s-15.81,47.5-38.18,56.51
		c7.02,2.83,14.69,4.4,22.72,4.4c33.64,0,60.91-27.27,60.91-60.91S1435.38,61.61,1401.74,61.61z"/>
	<g>
		<circle class="st2" cx="753.69" cy="122.52" r="28.72"/>
		<g>
			<g>
				<g>
					<polygon class="st2" points="753.69,220.63 749.69,160.41 757.69,160.41 753.69,220.63 					"/>
				</g>
			</g>
			<g>
				<g>
					<polygon class="st2" points="704.63,207.49 731.28,153.33 738.21,157.33 704.63,207.49 					"/>
				</g>
			</g>
			<g>
				<g>
					<polygon class="st2" points="668.72,171.58 718.88,138 722.88,144.93 668.72,171.58 					"/>
				</g>
			</g>
			<g>
				<g>
					<polygon class="st2" points="655.58,122.52 715.8,118.52 715.8,126.52 655.58,122.52 					"/>
				</g>
			</g>
			<g>
				<g>
					<polygon class="st2" points="668.72,73.47 722.88,100.11 718.88,107.04 668.72,73.47 					"/>
				</g>
			</g>
			<g>
				<g>
					<polygon class="st2" points="704.63,37.55 738.21,87.71 731.28,91.71 704.63,37.55 					"/>
				</g>
			</g>
			<g>
				<g>
					<polygon class="st2" points="753.69,24.41 757.69,84.63 749.69,84.63 753.69,24.41 					"/>
				</g>
			</g>
			<g>
				<g>
					<polygon class="st2" points="802.74,37.55 776.09,91.71 769.17,87.71 802.74,37.55 					"/>
				</g>
			</g>
			<g>
				<g>
					<polygon class="st2" points="838.65,73.47 788.5,107.04 784.5,100.11 838.65,73.47 					"/>
				</g>
			</g>
			<g>
				<g>
					<polygon class="st2" points="851.8,122.52 791.57,126.52 791.57,118.52 851.8,122.52 					"/>
				</g>
			</g>
			<g>
				<g>
					<polygon class="st2" points="838.65,171.57 784.5,144.93 788.5,138 838.65,171.57 					"/>
				</g>
			</g>
			<g>
				<g>
					<polygon class="st2" points="802.74,207.49 769.17,157.33 776.09,153.33 802.74,207.49 					"/>
				</g>
			</g>
		</g>
	</g>
</g>
</svg>
